<?xml version="1.0" encoding="UTF-8" standalone="no"?>
<!-- Created with Inkscape (http://www.inkscape.org/) -->

<svg
   width="498.97647mm"
   height="30.39399mm"
   viewBox="0 0 498.97647 30.39399"
   version="1.1"
   id="svg1"
   xmlns="http://www.w3.org/2000/svg"
   xmlns:svg="http://www.w3.org/2000/svg">
  <defs
     id="defs1" />
  <g
     id="layer1"
     transform="translate(129.42301,94.808578)">
    <path
       id="path24"
       d="m -107.0001,-69.725198 c -0.52881,1.13347 -1.26541,2.08527 -2.21051,2.85468 -0.94579,0.77011 -2.07433,1.35784 -3.38455,1.76318 -1.31127,0.40534 -2.76436,0.60854 -4.35962,0.60854 -2.23944,0 -4.43618,-0.38488 -6.59095,-1.15429 -2.15547,-0.7694 -4.11409,-1.95227 -5.87728,-3.54753 l 3.82023,-4.57553 c 1.34338,1.09114 2.72168,1.95898 4.13526,2.6028 1.41288,0.64382 2.95946,0.9652 4.63868,0.9652 1.34338,0 2.38583,-0.24448 3.12737,-0.73449 0.74154,-0.4893 1.11266,-1.1684 1.11266,-2.03623 v -0.0836 c 0,-0.4198 -0.0772,-0.79057 -0.23142,-1.11266 -0.15487,-0.32138 -0.44944,-0.6223 -0.88441,-0.9024 -0.43462,-0.27976 -1.03823,-0.55986 -1.80975,-0.83997 -0.77188,-0.2794 -1.77483,-0.57326 -3.00955,-0.88124 -1.48731,-0.36371 -2.83421,-0.76941 -4.04107,-1.21743 -1.20685,-0.44768 -2.23096,-1.00048 -3.07269,-1.65841 -0.84208,-0.65723 -1.49402,-1.47602 -1.95721,-2.45604 -0.46285,-0.97896 -0.69462,-2.19675 -0.69462,-3.65231 v -0.0836 c 0,-1.34337 0.24976,-2.55375 0.75036,-3.63149 0.50059,-1.07703 1.20226,-2.00801 2.10643,-2.79153 0.90382,-0.78352 1.98297,-1.38571 3.2378,-1.80552 1.25412,-0.4198 2.63736,-0.62971 4.14866,-0.62971 2.15477,0 4.13526,0.32209 5.94043,0.96591 1.80516,0.64382 3.46322,1.56739 4.97452,2.77072 l -3.35845,4.86939 c -1.31586,-0.895 -2.60279,-1.60161 -3.86221,-2.11984 -1.25942,-0.51753 -2.51883,-0.77682 -3.77825,-0.77682 -1.25941,0 -2.2038,0.24553 -2.83386,0.73484 -0.62936,0.49 -0.94439,1.0989 -0.94439,1.82633 v 0.0836 c 0,0.47661 0.0914,0.889 0.27376,1.23861 0.18203,0.35031 0.51153,0.66498 0.98883,0.94438 0.47696,0.28011 1.1296,0.54575 1.95757,0.79799 0.82761,0.25153 1.87254,0.54539 3.13584,0.88159 1.48731,0.39193 2.8127,0.83291 3.97792,1.32221 1.16417,0.49001 2.1463,1.07773 2.9464,1.76318 0.79975,0.68615 1.403,1.49014 1.80975,2.41406 0.40675,0.92357 0.61066,2.02918 0.61066,3.31611 v 0.0843 c 0,1.45556 -0.26423,2.74955 -0.79234,3.88302"
       style="fill:#ffffff;fill-opacity:1;fill-rule:nonzero;stroke:none;stroke-width:0.352778" />
    <path
       id="path25"
       d="m -77.408962,-79.611578 c 0,-1.25942 -0.21731,-2.44863 -0.65087,-3.56835 -0.43427,-1.11901 -1.04952,-2.09902 -1.84715,-2.93864 -0.79763,-0.83961 -1.74202,-1.50389 -2.83351,-1.99425 -1.09149,-0.4893 -2.28141,-0.73448 -3.56835,-0.73448 -1.31586,0 -2.51248,0.23812 -3.58916,0.71367 -1.07809,0.47625 -2.00166,1.13347 -2.77071,1.97308 -0.77012,0.83961 -1.37196,1.81222 -1.80552,2.91783 -0.43392,1.1056 -0.65052,2.28776 -0.65052,3.54718 v 0.084 c 0,1.25942 0.2166,2.44934 0.65052,3.56835 0.43356,1.11971 1.04987,2.09902 1.84714,2.93864 0.79799,0.83961 1.73496,1.50459 2.8127,1.9939 1.07738,0.49 2.27365,0.73483 3.58951,0.73483 1.28694,0 2.47686,-0.23742 3.56835,-0.71367 1.0915,-0.47554 2.02142,-1.13347 2.79188,-1.97308 0.76906,-0.83961 1.37055,-1.81187 1.80482,-2.91783 0.43356,-1.10525 0.65087,-2.28776 0.65087,-3.54718 z m 5.58341,5.89809 c -0.78387,1.83374 -1.86831,3.44276 -3.25367,4.82777 -1.38535,1.38571 -3.03671,2.47685 -4.95335,3.27483 -1.9177,0.79728 -4.00932,1.19627 -6.27627,1.19627 -2.26695,0 -4.35222,-0.39899 -6.2551,-1.19627 -1.90359,-0.79798 -3.54753,-1.87501 -4.93254,-3.23285 -1.38571,-1.35714 -2.46309,-2.9524 -3.232498,-4.78543 -0.77047,-1.83304 -1.15464,-3.79942 -1.15464,-5.89845 v -0.084 c 0,-2.09903 0.39158,-4.06471 1.17545,-5.89844 0.783168,-1.83268 1.867958,-3.44241 3.253318,-4.82777 1.38536,-1.38536 3.03671,-2.47685 4.9537,-3.27448 1.91665,-0.79763 4.00932,-1.19627 6.27627,-1.19627 2.26695,0 4.35152,0.39864 6.25511,1.19627 1.90288,0.79763 3.54718,1.87537 4.93289,3.23285 1.385,1.35749 2.46239,2.95275 3.23215,4.78543 0.76941,1.83339 1.15464,3.79942 1.15464,5.89845 v 0.084 c 0,2.09903 -0.39229,4.06541 -1.17546,5.89809"
       style="fill:#ffffff;fill-opacity:1;fill-rule:nonzero;stroke:none;stroke-width:0.352778" />
    <path
       id="path26"
       d="m -64.899108,-64.918418 v -29.38639 h 6.465005 v 23.55109 h 14.651213 v 5.8353 z"
       style="fill:#ffffff;fill-opacity:1;fill-rule:nonzero;stroke:none;stroke-width:0.352778" />
    <path
       id="path27"
       d="m -14.669974,-71.887158 c -0.602192,1.65171 -1.462617,3.02966 -2.581628,4.13491 -1.119716,1.10596 -2.476852,1.9311 -4.072113,2.47685 -1.595261,0.5461 -3.372908,0.8188 -5.331531,0.8188 -3.946172,0 -7.052733,-1.0915 -9.319682,-3.27449 -2.26695,-2.18298 -3.400425,-5.443 -3.400425,-9.78146 v -16.79223 h 6.465005 v 16.6243 c 0,2.40736 0.559505,4.21923 1.679222,5.43631 1.119011,1.21743 2.672292,1.82633 4.659841,1.82633 1.986845,0 3.540125,-0.58773 4.659842,-1.76318 1.119011,-1.17546 1.679222,-2.93864 1.679222,-5.28955 v -16.83421 h 6.465005 v 16.58232 c 0,2.23944 -0.301272,4.1843 -0.902758,5.8353"
       style="fill:#ffffff;fill-opacity:1;fill-rule:nonzero;stroke:none;stroke-width:0.352778" />
    <path
       id="path28"
       d="m 6.1313221,-88.343538 v 23.42515 h -6.46500499 v -23.42515 H -9.2755409 v -5.96124 H 15.07318 v 5.96124 z"
       style="fill:#ffffff;fill-opacity:1;fill-rule:nonzero;stroke:none;stroke-width:0.352778" />
    <path
       id="path29"
       d="m 20.320599,-94.304548 h 6.465005 v 29.38638 h -6.465005 z"
       style="fill:#ffffff;fill-opacity:1;fill-rule:nonzero;stroke:none;stroke-width:0.352778" />
    <path
       id="path30"
       d="m 57.30531,-79.611578 c 0,-1.25942 -0.217311,-2.44863 -0.650875,-3.56835 -0.434269,-1.11901 -1.049514,-2.09902 -1.847144,-2.93864 -0.797631,-0.83961 -1.742017,-1.50389 -2.833511,-1.99425 -1.091495,-0.4893 -2.281414,-0.73448 -3.568347,-0.73448 -1.315861,0 -2.512484,0.23812 -3.589161,0.71367 -1.078089,0.47625 -2.001661,1.13347 -2.770717,1.97308 -0.770114,0.83961 -1.371952,1.81222 -1.805516,2.91783 -0.433917,1.1056 -0.650522,2.28776 -0.650522,3.54718 v 0.084 c 0,1.25942 0.216605,2.44934 0.650522,3.56835 0.433564,1.11971 1.049866,2.09902 1.847144,2.93864 0.797983,0.83961 1.734961,1.50459 2.812697,1.9939 1.077383,0.49 2.273653,0.73483 3.589514,0.73483 1.286933,0 2.476852,-0.23742 3.568347,-0.71367 1.091494,-0.47554 2.021416,-1.13347 2.791883,-1.97308 0.769056,-0.83961 1.370542,-1.81187 1.804811,-2.91783 0.433564,-1.10525 0.650875,-2.28776 0.650875,-3.54718 z m 5.583414,5.89809 c -0.783873,1.83374 -1.868311,3.44276 -3.25367,4.82777 -1.385358,1.38571 -3.036711,2.47685 -4.953352,3.27483 -1.9177,0.79728 -4.009319,1.19627 -6.276269,1.19627 -2.26695,0 -4.35222,-0.39899 -6.255103,-1.19627 -1.903588,-0.79798 -3.547533,-1.87501 -4.932538,-3.23285 -1.385711,-1.35714 -2.463095,-2.9524 -3.232503,-4.78543 -0.770467,-1.83304 -1.154642,-3.79942 -1.154642,-5.89845 v -0.084 c 0,-2.09903 0.391584,-4.06471 1.175456,-5.89844 0.783167,-1.83268 1.867958,-3.44241 3.253316,-4.82777 1.385359,-1.38536 3.036711,-2.47685 4.953706,-3.27448 1.916641,-0.79763 4.009319,-1.19627 6.276269,-1.19627 2.26695,0 4.351513,0.39864 6.255102,1.19627 1.902883,0.79763 3.547181,1.87537 4.932892,3.23285 1.385005,1.35749 2.462388,2.95275 3.232149,4.78543 0.769409,1.83339 1.154642,3.79942 1.154642,5.89845 v 0.084 c 0,2.09903 -0.392289,4.06541 -1.175455,5.89809"
       style="fill:#ffffff;fill-opacity:1;fill-rule:nonzero;stroke:none;stroke-width:0.352778" />
    <path
       id="path31"
       d="m 90.427491,-64.918418 -14.231408,-18.68135 v 18.68135 h -6.381044 v -29.38639 h 5.961239 l 13.769621,18.09362 v -18.09362 h 6.381045 v 29.38639 z"
       style="fill:#ffffff;fill-opacity:1;fill-rule:nonzero;stroke:none;stroke-width:0.352778" />
    <path
       id="path32"
       d="m 123.42926,-69.725198 c -0.52846,1.13347 -1.26541,2.08527 -2.2105,2.85468 -0.9458,0.77011 -2.07434,1.35784 -3.38455,1.76318 -1.31128,0.40534 -2.76437,0.60854 -4.35963,0.60854 -2.23943,0 -4.43618,-0.38488 -6.59095,-1.15429 -2.15547,-0.7694 -4.11409,-1.95227 -5.87728,-3.54753 l 3.82023,-4.57553 c 1.34338,1.09114 2.72169,1.95898 4.13527,2.6028 1.41287,0.64382 2.95945,0.9652 4.63867,0.9652 1.34338,0 2.38584,-0.24448 3.12738,-0.73449 0.74153,-0.4893 1.11266,-1.1684 1.11266,-2.03623 v -0.0836 c 0,-0.4198 -0.0773,-0.79057 -0.23143,-1.11266 -0.15487,-0.32138 -0.44943,-0.6223 -0.88441,-0.9024 -0.43462,-0.27976 -1.03822,-0.55986 -1.80975,-0.83997 -0.77188,-0.2794 -1.77482,-0.57326 -3.00955,-0.88124 -1.48731,-0.36371 -2.83421,-0.76941 -4.04107,-1.21743 -1.20685,-0.44768 -2.23096,-1.00048 -3.07269,-1.65841 -0.84208,-0.65723 -1.49401,-1.47602 -1.95721,-2.45604 -0.46285,-0.97896 -0.69462,-2.19675 -0.69462,-3.65231 v -0.0836 c 0,-1.34337 0.24977,-2.55375 0.75036,-3.63149 0.50059,-1.07703 1.20226,-2.00801 2.10643,-2.79153 0.90382,-0.78352 1.98297,-1.38571 3.2378,-1.80552 1.25412,-0.4198 2.63736,-0.62971 4.14866,-0.62971 2.15477,0 4.13527,0.32209 5.94043,0.96591 1.80516,0.64382 3.46357,1.56739 4.97452,2.77072 l -3.35845,4.86939 c -1.31586,-0.895 -2.60279,-1.60161 -3.86221,-2.11984 -1.25941,-0.51753 -2.51883,-0.77682 -3.77825,-0.77682 -1.25941,0 -2.2038,0.24553 -2.83386,0.73484 -0.62936,0.49 -0.94439,1.0989 -0.94439,1.82633 v 0.0836 c 0,0.47661 0.0914,0.889 0.27376,1.23861 0.18203,0.35031 0.51153,0.66498 0.98883,0.94438 0.47696,0.28011 1.1296,0.54575 1.95757,0.79799 0.82762,0.25153 1.87254,0.54539 3.13584,0.88159 1.48731,0.39193 2.8127,0.83291 3.97792,1.32221 1.16417,0.49001 2.1463,1.07773 2.94675,1.76318 0.7994,0.68615 1.40265,1.49014 1.80975,2.41406 0.4064,0.92357 0.61031,2.02918 0.61031,3.31611 v 0.0843 c 0,1.45556 -0.26423,2.74955 -0.79234,3.88302"
       style="fill:#ffffff;fill-opacity:1;fill-rule:nonzero;stroke:none;stroke-width:0.352778" />
    <path
       id="path33"
       d="m 142.73484,-94.304548 h 6.46465 v 29.38638 h -6.46465 z"
       style="fill:#ffffff;fill-opacity:1;fill-rule:nonzero;stroke:none;stroke-width:0.352778" />
    <path
       id="path34"
       d="m 177.15862,-64.918418 -14.23141,-18.68135 v 18.68135 h -6.38104 v -29.38639 h 5.96159 l 13.76927,18.09362 v -18.09362 h 6.3814 v 29.38639 z"
       style="fill:#ffffff;fill-opacity:1;fill-rule:nonzero;stroke:none;stroke-width:0.352778" />
    <path
       id="path35"
       d="m 215.27654,-86.748278 -3.90419,9.52959 h 7.80803 z m 8.89988,21.82989 -2.68711,-6.59095 h -12.42589 l -2.68711,6.59095 h -6.59059 l 12.59416,-29.59629 h 5.96124 l 12.59417,29.59629 z"
       style="fill:#ffffff;fill-opacity:1;fill-rule:nonzero;stroke:none;stroke-width:0.352778" />
    <path
       id="path36"
       d="m 258.93591,-67.479168 c -0.81209,0.64417 -1.70004,1.19627 -2.66594,1.65806 -0.9652,0.46178 -2.02212,0.81209 -3.16936,1.04951 -1.14794,0.23742 -2.43452,0.35701 -3.86221,0.35701 -2.15547,0 -4.15607,-0.39229 -6.00322,-1.17546 -1.84714,-0.78316 -3.4424,-1.85384 -4.78578,-3.21168 -1.34338,-1.35714 -2.39254,-2.95946 -3.14854,-4.8066 -0.75565,-1.84715 -1.13348,-3.82023 -1.13348,-5.91926 v -0.084 c 0,-2.09903 0.37783,-4.06506 1.13348,-5.89844 0.756,-1.83268 1.80516,-3.44241 3.14854,-4.82777 1.34338,-1.38536 2.9524,-2.47685 4.82776,-3.27448 1.87502,-0.79763 3.94618,-1.19627 6.21348,-1.19627 1.37054,0 2.62361,0.11218 3.75708,0.33584 1.13348,0.22437 2.16182,0.53199 3.0854,0.92358 0.92357,0.39229 1.77694,0.86783 2.56081,1.42734 0.78352,0.56021 1.5113,1.17545 2.18299,1.84714 l -4.1141,4.7438 c -1.14793,-1.03505 -2.31598,-1.84714 -3.5052,-2.43487 -1.18992,-0.58773 -2.52588,-0.88159 -4.00932,-0.88159 -1.2319,0 -2.37172,0.23812 -3.42159,0.71367 -1.04916,0.47625 -1.95192,1.13347 -2.70757,1.97308 -0.75565,0.83961 -1.34337,1.81222 -1.76318,2.91748 -0.4198,1.10595 -0.62971,2.28811 -0.62971,3.54753 v 0.084 c 0,1.25942 0.20991,2.44934 0.62971,3.56835 0.41981,1.11971 1.00013,2.09902 1.74237,2.93864 0.74083,0.83961 1.63689,1.50459 2.68676,1.9939 1.04951,0.49 2.2038,0.73483 3.46321,0.73483 1.67923,0 3.09951,-0.30762 4.26121,-0.92357 1.16099,-0.61524 2.31528,-1.45486 3.46322,-2.51883 l 4.11409,4.15607 c -0.75565,0.8121 -1.53952,1.53952 -2.35091,2.18299"
       style="fill:#ffffff;fill-opacity:1;fill-rule:nonzero;stroke:none;stroke-width:0.352778" />
    <path
       id="path37"
       d="m 279.75803,-88.343538 v 23.42515 h -6.46501 v -23.42515 h -8.94221 v -5.96124 h 24.34908 v 5.96124 z"
       style="fill:#ffffff;fill-opacity:1;fill-rule:nonzero;stroke:none;stroke-width:0.352778" />
    <path
       id="path38"
       d="m 293.94703,-94.304548 h 6.465 v 29.38638 h -6.465 z"
       style="fill:#ffffff;fill-opacity:1;fill-rule:nonzero;stroke:none;stroke-width:0.352778" />
    <path
       id="path39"
       d="m 330.93149,-79.611578 c 0,-1.25942 -0.21696,-2.44863 -0.65052,-3.56835 -0.43392,-1.11901 -1.04916,-2.09902 -1.84715,-2.93864 -0.79727,-0.83961 -1.74201,-1.50389 -2.83351,-1.99425 -1.09149,-0.4893 -2.28141,-0.73448 -3.56834,-0.73448 -1.31587,0 -2.51249,0.23812 -3.58917,0.71367 -1.07773,0.47625 -2.0013,1.13347 -2.77071,1.97308 -0.77012,0.83961 -1.37195,1.81222 -1.80517,2.91783 -0.43462,1.1056 -0.65087,2.28776 -0.65087,3.54718 v 0.084 c 0,1.25942 0.21625,2.44934 0.65087,3.56835 0.43322,1.11971 1.04952,2.09902 1.8468,2.93864 0.79798,0.83961 1.73496,1.50459 2.81305,1.9939 1.07703,0.49 2.2733,0.73483 3.58916,0.73483 1.28693,0 2.47685,-0.23742 3.56834,-0.71367 1.0915,-0.47554 2.02177,-1.13347 2.79153,-1.97308 0.76977,-0.83961 1.37125,-1.81187 1.80517,-2.91783 0.43356,-1.10525 0.65052,-2.28776 0.65052,-3.54718 z m 5.58377,5.89809 c -0.78423,1.83374 -1.86796,3.44276 -3.25367,4.82777 -1.38536,1.38571 -3.03707,2.47685 -4.95371,3.27483 -1.91699,0.79728 -4.00896,1.19627 -6.27591,1.19627 -2.26695,0 -4.35187,-0.39899 -6.25511,-1.19627 -1.90359,-0.79798 -3.54753,-1.87501 -4.93254,-3.23285 -1.38535,-1.35714 -2.46309,-2.9524 -3.23285,-4.78543 -0.76976,-1.83304 -1.15429,-3.79942 -1.15429,-5.89845 v -0.084 c 0,-2.09903 0.39158,-4.06471 1.17546,-5.89844 0.78316,-1.83268 1.86831,-3.44241 3.25366,-4.82777 1.38501,-1.38536 3.03636,-2.47685 4.95371,-3.27448 1.91629,-0.79763 4.00897,-1.19627 6.27592,-1.19627 2.2673,0 4.35186,0.39864 6.2551,1.19627 1.90324,0.79763 3.54718,1.87537 4.93289,3.23285 1.38536,1.35749 2.46239,2.95275 3.23215,4.78543 0.76941,1.83339 1.15464,3.79942 1.15464,5.89845 v 0.084 c 0,2.09903 -0.39193,4.06541 -1.17545,5.89809"
       style="fill:#ffffff;fill-opacity:1;fill-rule:nonzero;stroke:none;stroke-width:0.352778" />
    <path
       id="path40"
       d="m 364.05402,-64.918418 -14.23141,-18.68135 v 18.68135 h -6.38104 v -29.38639 h 5.96124 l 13.76962,18.09362 v -18.09362 h 6.38104 v 29.38639 z"
       style="fill:#ffffff;fill-opacity:1;fill-rule:nonzero;stroke:none;stroke-width:0.352778" />
  </g>
</svg>
